REM GENRE "Alt. Rock, Grunge"
REM DATE 2003
REM DISCID A90DCE0E
REM COMMENT "ExactAudioCopy v0.95b4"
FILE "Pearl Jam - 01 - Fatal.wav" WAVE
  TRACK 01 AUDIO
    INDEX 01 00:00:00
  TRACK 02 AUDIO
    INDEX 00 03:37:65
FILE "Pearl Jam - 02 - Other Side.wav" WAVE
    INDEX 01 00:00:00
  TRACK 03 AUDIO
    INDEX 00 04:02:70
FILE "Pearl Jam - 03 - Hard to Imagine.wav" WAVE
    INDEX 01 00:00:00
  TRACK 04 AUDIO
    INDEX 00 04:34:22
FILE "Pearl Jam - 04 - Footsteps.wav" WAVE
    INDEX 01 00:00:00
  TRACK 05 AUDIO
    INDEX 00 03:53:21
FILE "Pearl Jam - 05 - Wash.wav" WAVE
    INDEX 01 00:00:00
  TRACK 06 AUDIO
    INDEX 00 03:47:16
FILE "Pearl Jam - 06 - Dead Man.wav" WAVE
    INDEX 01 00:00:00
  TRACK 07 AUDIO
    INDEX 00 04:14:67
FILE "Pearl Jam - 07 - Strangest Tribe.wav" WAVE
    INDEX 01 00:00:00
  TRACK 08 AUDIO
    INDEX 00 03:47:56
FILE "Pearl Jam - 08 - Drifting.wav" WAVE
    INDEX 01 00:00:00
  TRACK 09 AUDIO
    INDEX 00 02:51:41
FILE "Pearl Jam - 09 - Let Me Sleep.wav" WAVE
    INDEX 01 00:00:00
  TRACK 10 AUDIO
    INDEX 00 02:57:63
FILE "Pearl Jam - 10 - Last Kiss.wav" WAVE
    INDEX 01 00:00:00
  TRACK 11 AUDIO
    INDEX 00 03:15:48
FILE "Pearl Jam - 11 - Sweet Lew.wav" WAVE
    INDEX 01 00:00:00
  TRACK 12 AUDIO
    INDEX 00 02:10:17
FILE "Pearl Jam - 12 - Dirty Frank.wav" WAVE
    INDEX 01 00:00:00
  TRACK 13 AUDIO
    INDEX 00 05:40:40
FILE "Pearl Jam - 13 - Brother.wav" WAVE
    INDEX 01 00:00:00
  TRACK 14 AUDIO
    INDEX 00 03:45:67
FILE "Pearl Jam - 14 - Bee Girl.wav" WAVE
    INDEX 01 00:00:00
